<svg xmlns="http://www.w3.org/2000/svg" id="graph" width="1920" height="1050.0000305175781" data-ol-has-click-handler=""><script type="application/json"><![CDATA[{
  "name": "SystemContext",
  "description": "An example of a System Context diagram.",
  "elements": [
    {
      "id": "122st75",
      "tags": "Element,Software System,system",
      "elementViewKey": "SystemContext"
    },
    {
      "id": "1qbyk9e",
      "tags": "Element,Person,person"
    }
  ],
  "layout": {
    "122st75": {
      "x": 400,
      "y": 880
    },
    "1qbyk9e": {
      "x": 400,
      "y": 400
    },
    "e-1t0pjo3": [
      {
        "x": 400.5,
        "y": 641,
        "label": true
      }
    ]
  }
}]]></script>
<defs>
	<marker id="arrow" viewBox="0 0 5 5" refX="4" refY="2.5" markerWidth="5" markerHeight="5" orient="auto" markerUnits="strokeWidth">
		<path fill="#aaa" stroke-width="1" stroke="none" d="M0,0 L5,2.5 L0,5 Z" class="arrowHead"></path>
	</marker>
	<g id="icon-circle" transform="translate(0,-12)" class="icon">
		<circle cx="7" cy="7" r="7"></circle>
	</g>
	<g id="icon-cube" transform="translate(0, -14)" class="icon">
		<path d="M 5 0 h 10 v 10 l -5 5 h -10 v -10 l 5 -5 M 0 5 h 10 v 10 M 15 0 l -5 5"></path>
	</g>
	<filter id="shadow">
		<feDropShadow dx="3" dy="3" stdDeviation="5" flood-color="#00000030" flood-opacity="1"></feDropShadow>
	</filter>
</defs><g class="zoom" transform="scale(1)"><g class="groups"></g><g class="edges"><g class="edge" id="1t0pjo3" data-from="1qbyk9e" data-to="122st75"><rect x="364.4375" y="622.5" rx="0" ry="0" width="72.125" height="37" fill="none" stroke="none"></rect><text x="0" y="622.5" text-anchor="middle" font-family="Arial, sans-serif" stroke="none" font-size="22" fill="#999" data-field="label"><tspan x="400.5" dy="24px" font-size="22px" font-weight="normal">Uses</tspan></text><path marker-end="url(#arrow)" class="edge" d="M400.31120331950206,550 L400.4616182572614,622.5 M400.4612970711297,659.5 L400.31380753138075,730" fill="none" stroke="#999" stroke-width="3" stroke-linecap="round" stroke-dasharray="8"></path><circle id="v-38qafhd" cx="400.5" cy="641" r="7" fill="none" class="v-dot"></circle></g></g><g class="nodes"><g class="node" id="122st75" transform="translate(400,880)"><rect rx="3" ry="3" x="-150" y="-150" width="300" height="300" class="nodeBorder" fill="#1168bd" stroke="#999" filter="url(#shadow)" stroke-width="4.3" opacity="0.9"></rect><g transform="translate(0,-58)"><text x="0" y="0" text-anchor="middle" font-family="Arial, sans-serif" stroke="none" fill="#FFFFFF" data-field="name"><tspan x="0" dy="24px" font-size="22px" font-weight="bold">Software System</tspan></text><text x="0" y="48" text-anchor="middle" font-family="Arial, sans-serif" stroke="none" fill="#FFFFFF" font-size="16.5">[system]</text><text x="0" y="68" text-anchor="middle" font-family="Arial, sans-serif" stroke="none" fill="#FFFFFF" data-field="description"><tspan x="0" dy="24px" font-size="22px" font-weight="normal">My software system.</tspan></text></g></g><g class="node selected" id="1qbyk9e" transform="translate(400,400)" label-offset-y="120"><path d="M 114,100 A150,150 0,0,0 0 150
		L27.272727272727273,300 L272.72727272727275,300 L300,150
		A150,150 0,0,0 186 100 
		A50,50 0,1,0 114 100" transform="translate(-150,-150)" class="nodeBorder" fill="#08427b" stroke="#999" filter="url(#shadow)" stroke-width="4.3" opacity="0.9"></path><g transform="translate(0,-130)"><text x="0" y="120" text-anchor="middle" font-family="Arial, sans-serif" stroke="none" fill="#FFFFFF" data-field="name"><tspan x="0" dy="24px" font-size="22px" font-weight="bold">User</tspan></text><text x="0" y="168" text-anchor="middle" font-family="Arial, sans-serif" stroke="none" fill="#FFFFFF" font-size="16.5">[person]</text><text x="0" y="188" text-anchor="middle" font-family="Arial, sans-serif" stroke="none" fill="#FFFFFF" data-field="description"><tspan x="0" dy="24px" font-size="22px" font-weight="normal">A user of my software</tspan><tspan x="0" dy="24px" font-size="22px" font-weight="normal">system.</tspan></text></g></g></g></g></svg>